<svg width="48" height="48" viewBox="0 0 48 48" fill="none" xmlns="http://www.w3.org/2000/svg">
<g id="material-symbols:cloud-sync">
<path id="Vector" d="M8.00024 40V36H13.4502C11.7502 34.5333 10.4169 32.7667 9.45024 30.7C8.48358 28.6333 8.00024 26.4 8.00024 24C8.00024 20.2667 9.13358 16.9753 11.4002 14.126C13.6669 11.2767 16.5336 9.40133 20.0002 8.5V12.7C17.6669 13.5333 15.7502 14.9753 14.2502 17.026C12.7502 19.0767 12.0002 21.4013 12.0002 24C12.0002 25.8 12.3589 27.4587 13.0762 28.976C13.7936 30.4933 14.7682 31.8013 16.0002 32.9V28H20.0002V40H8.00024ZM30.0002 40C28.3336 40 26.9169 39.4167 25.7502 38.25C24.5836 37.0833 24.0002 35.6667 24.0002 34C24.0002 32.4 24.5502 31.0253 25.6502 29.876C26.7502 28.7267 28.1002 28.118 29.7002 28.05C30.2669 26.85 31.1089 25.8747 32.2262 25.124C33.3436 24.3733 34.6016 23.9987 36.0002 24C37.7669 24 39.2922 24.5753 40.5762 25.726C41.8602 26.8767 42.6349 28.3013 42.9002 30C44.3002 30 45.5002 30.4833 46.5002 31.45C47.5002 32.4167 48.0002 33.5833 48.0002 34.95C48.0002 36.35 47.5169 37.542 46.5502 38.526C45.5836 39.51 44.4002 40.0013 43.0002 40H30.0002ZM35.8002 22C35.5669 20.6333 35.1169 19.3667 34.4502 18.2C33.7836 17.0333 32.9669 16 32.0002 15.1V20H28.0002V8H40.0002V12H34.5502C35.9836 13.2667 37.1589 14.75 38.0762 16.45C38.9936 18.15 39.5849 20 39.8502 22H35.8002Z" fill="#0078D4"/>
</g>
</svg>
