<svg width="33" height="28" viewBox="0 0 33 28" fill="none" xmlns="http://www.w3.org/2000/svg">
<g id="facebook 1" clip-path="url(#clip0_12_798)">
<g id="Group">
<path id="Vector" d="M16.6857 27.6921C25.6205 27.6921 32.8635 21.6873 32.8635 14.28C32.8635 6.87263 25.6205 0.867798 16.6857 0.867798C7.75102 0.867798 0.507996 6.87263 0.507996 14.28C0.507996 21.6873 7.75102 27.6921 16.6857 27.6921Z" fill="#3B5998"/>
<path id="Vector_2" d="M20.7528 14.805H17.8661V23.5727H13.4925V14.805H11.4124V11.7237H13.4925V9.7297C13.4925 8.3038 14.3095 6.07098 17.905 6.07098L21.1447 6.08222V9.07317H18.7941C18.4085 9.07317 17.8664 9.23288 17.8664 9.91307V11.7265H21.1349L20.7528 14.805Z" fill="white"/>
</g>
</g>
<defs>
<clipPath id="clip0_12_798">
<rect width="32.3555" height="26.8244" fill="white" transform="translate(0.507996 0.867798)"/>
</clipPath>
</defs>
</svg>
