<svg width="31" height="26" viewBox="0 0 31 26" fill="none" xmlns="http://www.w3.org/2000/svg">
<g id="search 1" clip-path="url(#clip0_12_791)">
<path id="Vector" d="M7.30394 15.9032L6.28007 19.1711L2.53788 19.2388C1.41951 17.4653 0.785156 15.4362 0.785156 13.28C0.785156 11.1949 1.37826 9.2287 2.42959 7.49738H2.43039L5.762 8.01959L7.22144 10.8509C6.91598 11.6122 6.74949 12.4295 6.74949 13.28C6.74961 14.203 6.94517 15.0874 7.30394 15.9032Z" fill="#FBBB00"/>
<path id="Vector_2" d="M29.9423 10.931C30.1112 11.6917 30.1993 12.4772 30.1993 13.28C30.1993 14.1802 30.0886 15.0583 29.8777 15.9053C29.1618 18.7877 27.291 21.3045 24.6996 23.0856L24.6988 23.0849L20.5024 22.9018L19.9085 19.7321C21.6281 18.8699 22.9719 17.5206 23.6798 15.9053H15.8156V10.931H23.7946H29.9423Z" fill="#518EF8"/>
<path id="Vector_3" d="M24.6986 23.0849L24.6994 23.0856C22.179 24.8176 18.9774 25.854 15.4922 25.854C9.89136 25.854 5.0219 23.1775 2.53784 19.2388L7.3039 15.9033C8.5459 18.7373 11.7435 20.7546 15.4922 20.7546C17.1034 20.7546 18.613 20.3822 19.9083 19.7321L24.6986 23.0849Z" fill="#28B446"/>
<path id="Vector_4" d="M24.8796 3.60087L20.1152 6.9357C18.7746 6.21929 17.1899 5.80543 15.4922 5.80543C11.6586 5.80543 8.40126 7.91534 7.22148 10.8509L2.43037 7.4974H2.42957C4.87725 3.4627 9.80813 0.706116 15.4922 0.706116C19.0606 0.706116 22.3326 1.79288 24.8796 3.60087Z" fill="#F14336"/>
</g>
<defs>
<clipPath id="clip0_12_791">
<rect width="29.4141" height="25.1478" fill="white" transform="translate(0.785156 0.706116)"/>
</clipPath>
</defs>
</svg>
