<svg width="818" height="851" viewBox="0 0 818 851" fill="none" xmlns="http://www.w3.org/2000/svg">
<g clip-path="url(#clip0_12_35)">
<path d="M851.5 650.842H0.5V651.267H851.5V650.842Z" fill="#EBEBEB"/>
<path d="M766.232 678.237H709.858V678.662H766.232V678.237Z" fill="#EBEBEB"/>
<path d="M564.236 682.856H549.441V683.282H564.236V682.856Z" fill="#EBEBEB"/>
<path d="M708.154 662.432H675.489V662.858H708.154V662.432Z" fill="#EBEBEB"/>
<path d="M163.3 665.292H89.7852V665.717H163.3V665.292Z" fill="#EBEBEB"/>
<path d="M189.233 665.292H178.454V665.717H189.233V665.292Z" fill="#EBEBEB"/>
<path d="M383.7 672.479H224.264V672.905H383.7V672.479Z" fill="#EBEBEB"/>
<path d="M403.898 574.936H75.2434C69.8872 574.936 65.5284 570.577 65.5284 565.221V103.243C65.5284 97.8872 69.8872 93.5284 75.2434 93.5284H403.898C409.252 93.5284 413.611 97.8872 413.611 103.243V565.221C413.611 570.577 409.252 574.936 403.898 574.936ZM75.2434 93.9556C70.1204 93.9556 65.9539 98.1221 65.9539 103.245V565.222C65.9539 570.345 70.1204 574.512 75.2434 574.512H403.898C409.019 574.512 413.186 570.345 413.186 565.222V103.243C413.186 98.1221 409.019 93.9539 403.898 93.9539L75.2434 93.9556Z" fill="#EBEBEB"/>
<path d="M772.034 574.936H443.381C438.025 574.936 433.667 570.577 433.667 565.221V103.243C433.667 97.8872 438.026 93.5284 443.381 93.5284H772.034C777.391 93.5284 781.749 97.8872 781.749 103.243V565.221C781.75 570.577 777.391 574.936 772.034 574.936ZM443.381 93.9556C438.259 93.9556 434.093 98.1221 434.093 103.245V565.222C434.093 570.345 438.259 574.512 443.381 574.512H772.034C777.157 574.512 781.323 570.345 781.323 565.222V103.243C781.323 98.1221 777.157 93.9539 772.034 93.9539L443.381 93.9556Z" fill="#EBEBEB"/>
<path d="M146.247 175.051C146.435 152.751 164.563 134.73 186.906 134.73C192.29 134.73 197.425 135.786 202.127 137.687C210.113 121.351 226.888 110.096 246.298 110.096C269.77 110.096 289.384 126.556 294.262 148.559C316.337 149.979 333.804 168.323 333.804 190.755C333.804 214.115 314.868 233.05 291.51 233.05H156.924C140.365 233.05 126.942 219.626 126.942 203.067C126.942 190.272 134.961 179.355 146.247 175.051Z" fill="#E0E0E0"/>
<path d="M623.58 506.793C623.696 493.034 634.881 481.913 648.667 481.913C651.99 481.913 655.157 482.565 658.059 483.737C662.986 473.656 673.338 466.712 685.313 466.712C699.796 466.712 711.9 476.868 714.909 490.447C728.53 491.323 739.308 502.641 739.308 516.484C739.308 530.898 727.623 542.581 713.209 542.581H630.165C619.948 542.581 611.664 534.299 611.664 524.08C611.668 516.184 616.617 509.448 623.58 506.793Z" fill="#E0E0E0"/>
<path d="M174.361 432.691C174.557 409.316 193.56 390.424 216.981 390.424C222.625 390.424 228.008 391.53 232.937 393.523C241.308 376.397 258.893 364.599 279.238 364.599C303.842 364.599 324.404 381.854 329.517 404.92C352.657 406.407 370.968 425.636 370.968 449.153C370.968 473.639 351.117 493.49 326.63 493.49H185.55C168.193 493.49 154.121 479.419 154.121 462.061C154.123 448.647 162.53 437.203 174.361 432.691Z" fill="#F0F0F0"/>
<path d="M203.707 473.146C203.707 476.698 200.827 479.579 197.273 479.579C193.719 479.579 190.84 476.7 190.84 473.146C190.84 469.592 193.719 466.712 197.273 466.712C200.827 466.712 203.707 469.594 203.707 473.146Z" fill="#E6E6E6"/>
<path d="M227.96 473.146C227.96 476.698 225.081 479.579 221.527 479.579C217.973 479.579 215.093 476.7 215.093 473.146C215.093 469.592 217.973 466.712 221.527 466.712C225.081 466.712 227.96 469.594 227.96 473.146Z" fill="white"/>
<path d="M614.413 226.812C614.549 210.622 627.711 197.538 643.932 197.538C647.84 197.538 651.569 198.305 654.984 199.684C660.781 187.822 672.96 179.653 687.051 179.653C704.091 179.653 718.334 191.603 721.874 207.578C737.9 208.609 750.581 221.927 750.581 238.214C750.581 255.172 736.833 268.921 719.874 268.921H622.164C610.143 268.921 600.397 259.175 600.397 247.154C600.397 237.863 606.219 229.937 614.413 226.812Z" fill="#F5F5F5"/>
<path d="M703.564 253.637C703.564 255.935 701.7 257.799 699.402 257.799C697.105 257.799 695.241 255.935 695.241 253.637C695.241 251.339 697.105 249.476 699.402 249.476C701.7 249.476 703.564 251.339 703.564 253.637Z" fill="white"/>
<path d="M719.255 253.637C719.255 255.935 717.391 257.799 715.093 257.799C712.795 257.799 710.932 255.935 710.932 253.637C710.932 251.339 712.795 249.476 715.093 249.476C717.391 249.476 719.255 251.339 719.255 253.637Z" fill="white"/>
<path d="M687.873 253.637C687.873 255.935 686.009 257.799 683.712 257.799C681.414 257.799 679.55 255.935 679.55 253.637C679.55 251.339 681.414 249.476 683.712 249.476C686.009 249.476 687.873 251.339 687.873 253.637Z" fill="#E6E6E6"/>
<path d="M380.608 200.95C359.077 280.631 367.021 364.606 473.34 388.802C553.252 406.989 592.742 310.157 667.897 384.655C800.738 516.338 601.926 689.562 429.802 660.378C257.677 631.192 97.3524 460.929 135.058 261.553C147.372 196.447 186.833 116.402 256.92 98.1544C317.838 82.2952 399.799 129.926 380.608 200.95Z" fill="#407BFF"/>
<path opacity="0.9" d="M380.608 200.95C359.077 280.631 367.021 364.606 473.34 388.802C553.252 406.989 592.742 310.157 667.897 384.655C800.738 516.338 601.926 689.562 429.802 660.378C257.677 631.192 97.3524 460.929 135.058 261.553C147.372 196.447 186.833 116.402 256.92 98.1544C317.838 82.2952 399.799 129.926 380.608 200.95Z" fill="white"/>
<path d="M426 727.709C608.254 727.709 755.999 719.081 755.999 708.437C755.999 697.794 608.254 689.165 426 689.165C243.747 689.165 96.001 697.794 96.001 708.437C96.001 719.081 243.747 727.709 426 727.709Z" fill="#F5F5F5"/>
<path d="M343.359 165.824H312.061C270.527 165.824 234.918 191.099 219.714 227.096H194.812C147.395 227.096 108.957 265.536 108.957 312.954C108.957 360.37 147.396 398.809 194.812 398.809H343.359V165.824Z" fill="#407BFF"/>
<path d="M269.404 170.639L268.71 169.085C272.612 167.342 276.665 165.819 280.753 164.561L281.253 166.187C277.23 167.426 273.244 168.924 269.404 170.639Z" fill="#407BFF"/>
<path d="M230.564 200.64L229.237 199.575C237.088 189.776 246.526 181.523 257.284 175.047L258.162 176.506C247.576 182.878 238.292 190.998 230.564 200.64Z" fill="#407BFF"/>
<path opacity="0.2" d="M343.359 165.824H312.061C270.527 165.824 234.918 191.099 219.714 227.096H194.812C147.395 227.096 108.957 265.536 108.957 312.954C108.957 360.37 147.396 398.809 194.812 398.809H343.359V165.824Z" fill="black"/>
<path opacity="0.5" d="M225.658 215.303H270.556L303.745 185.807H252.039C241.418 193.773 232.415 203.798 225.658 215.303Z" fill="#407BFF"/>
<path opacity="0.5" d="M123.623 264.951C117.666 273.75 113.309 283.724 110.96 294.446H162.19V264.951H123.623Z" fill="#407BFF"/>
<path opacity="0.5" d="M333.803 172.702H275.526C269.263 175.153 263.289 178.216 257.723 181.825H300.614L333.803 172.702Z" fill="#407BFF"/>
<path d="M514.261 293.137C505.688 256.866 474.127 229.491 435.797 227.258C420.632 191.17 384.958 165.824 343.359 165.824C300.566 165.824 264.058 192.653 249.681 230.4C242.189 228.265 234.288 227.096 226.11 227.096C178.693 227.096 140.255 265.536 140.255 312.954C140.255 360.37 178.694 398.809 226.11 398.809H499.554C529.301 398.809 553.415 374.695 553.415 344.948C553.413 320.303 536.855 299.538 514.261 293.137Z" fill="#407BFF"/>
<path opacity="0.2" d="M512.411 299.692L508.547 298.602L507.628 294.705C499.663 261.005 469.963 236.071 435.395 234.045L431.157 233.807L429.523 229.893C414.903 195.104 381.084 172.637 343.351 172.637C342.143 172.637 340.951 172.654 339.76 172.705C376.012 174.101 408.146 196.227 422.29 229.893L423.924 233.807L428.162 234.045C462.729 236.071 492.429 261.005 500.395 294.705L501.314 298.602L505.177 299.692C525.312 305.393 539.37 323.996 539.37 344.948C539.37 370.886 518.266 392.008 492.327 392.008H499.561C525.499 392.008 546.604 370.886 546.604 344.948C546.604 323.998 532.545 305.393 512.411 299.692Z" fill="black"/>
<path d="M505.177 299.691L501.314 298.602L500.395 294.704C492.429 261.005 462.729 236.071 428.162 234.045L423.924 233.807L422.29 229.892C408.146 196.227 376.012 174.101 339.76 172.705H339.641C302.605 174.203 269.314 197.98 256.038 232.82L253.826 238.658L247.818 236.939C247.648 236.888 247.46 236.837 247.29 236.802C240.38 234.879 233.232 233.909 226.117 233.909C224.875 233.909 223.649 233.943 222.407 233.994C180.538 235.934 147.059 270.604 147.059 312.95C147.059 356.538 182.529 392.008 226.117 392.008H492.327C518.266 392.008 539.37 370.886 539.37 344.948C539.37 323.998 525.312 305.393 505.177 299.691Z" fill="white"/>
<path d="M309.173 290.56V358.123H377.256V290.56H398.768L343.216 228.122L287.661 290.56H309.173Z" fill="#407BFF"/>
<path d="M298.959 488.632H295.472C290.585 488.632 286.625 484.672 286.625 479.785V444.794H307.806V479.785C307.806 484.672 303.844 488.632 298.959 488.632Z" fill="#407BFF"/>
<path opacity="0.2" d="M298.959 488.632H295.472C290.585 488.632 286.625 484.672 286.625 479.785V444.794H307.806V479.785C307.806 484.672 303.844 488.632 298.959 488.632Z" fill="black"/>
<path d="M300.515 455.685H293.915C284.666 455.685 277.169 448.188 277.169 438.939V398.809H317.259V438.939C317.261 448.188 309.764 455.685 300.515 455.685Z" fill="#407BFF"/>
<path opacity="0.2" d="M317.261 408.858L277.17 414.91V398.809H317.261V408.858Z" fill="black"/>
<path d="M308.846 434.364C311.784 434.364 314.165 431.983 314.165 429.045C314.165 426.108 311.784 423.727 308.846 423.727C305.909 423.727 303.527 426.108 303.527 429.045C303.527 431.983 305.909 434.364 308.846 434.364Z" fill="white"/>
<path opacity="0.5" d="M294.662 434.364C297.599 434.364 299.981 431.983 299.981 429.045C299.981 426.108 297.599 423.727 294.662 423.727C291.724 423.727 289.343 426.108 289.343 429.045C289.343 431.983 291.724 434.364 294.662 434.364Z" fill="white"/>
<path d="M430.728 547.477H341.468C314.721 547.477 292.961 525.717 292.961 498.97V488.632H301.471V498.97C301.471 521.025 319.414 538.967 341.468 538.967H430.728V547.477Z" fill="#407BFF"/>
<path d="M639.072 334.159H492.795C480.587 334.159 470.599 344.146 470.599 356.355V686.24C470.599 698.448 480.587 708.435 492.795 708.435H639.072C651.28 708.435 661.268 698.448 661.268 686.24V356.355C661.268 344.148 651.28 334.159 639.072 334.159Z" fill="#407BFF"/>
<path opacity="0.2" d="M639.072 334.159H492.795C480.587 334.159 470.599 344.146 470.599 356.355V686.24C470.599 698.448 480.587 708.435 492.795 708.435H639.072C651.28 708.435 661.268 698.448 661.268 686.24V356.355C661.268 344.148 651.28 334.159 639.072 334.159Z" fill="black"/>
<path d="M599.201 334.159H452.924C440.716 334.159 430.728 344.146 430.728 356.355V686.24C430.728 698.448 440.716 708.435 452.924 708.435H599.201C611.409 708.435 621.396 698.448 621.396 686.24V356.355C621.398 344.148 611.409 334.159 599.201 334.159Z" fill="#407BFF"/>
<path opacity="0.2" d="M452.924 701.038C444.765 701.038 438.127 694.401 438.127 686.241V356.356C438.127 348.197 444.765 341.559 452.924 341.559H599.201C607.36 341.559 613.998 348.197 613.998 356.356V686.241C613.998 694.401 607.36 701.038 599.201 701.038H452.924Z" fill="black"/>
<path d="M459.809 701.038C451.649 701.038 445.011 694.401 445.011 686.241V356.356C445.011 348.197 451.649 341.559 459.809 341.559H599.201C607.36 341.559 613.998 348.197 613.998 356.356V686.241C613.998 694.401 607.36 701.038 599.201 701.038H459.809Z" fill="white"/>
<path opacity="0.3" d="M590.98 384.834H468.029C461.699 384.834 456.52 379.655 456.52 373.325C456.52 366.996 461.699 361.816 468.029 361.816H590.98C597.31 361.816 602.489 366.996 602.489 373.325C602.489 379.655 597.31 384.834 590.98 384.834Z" fill="#407BFF"/>
<path d="M550.442 375.842H466.179C464.794 375.842 463.662 374.709 463.662 373.325C463.662 371.94 464.795 370.808 466.179 370.808H550.442C551.827 370.808 552.959 371.941 552.959 373.325C552.959 374.711 551.827 375.842 550.442 375.842Z" fill="white"/>
<path d="M580.858 375.842C582.248 375.842 583.375 374.715 583.375 373.325C583.375 371.935 582.248 370.808 580.858 370.808C579.468 370.808 578.341 371.935 578.341 373.325C578.341 374.715 579.468 375.842 580.858 375.842Z" fill="#407BFF"/>
<path d="M591.957 375.842C593.347 375.842 594.474 374.715 594.474 373.325C594.474 371.935 593.347 370.808 591.957 370.808C590.567 370.808 589.44 371.935 589.44 373.325C589.44 374.715 590.567 375.842 591.957 375.842Z" fill="#407BFF"/>
<path d="M569.761 375.842C571.151 375.842 572.278 374.715 572.278 373.325C572.278 371.935 571.151 370.808 569.761 370.808C568.371 370.808 567.244 371.935 567.244 373.325C567.244 374.715 568.371 375.842 569.761 375.842Z" fill="#407BFF"/>
<path opacity="0.3" d="M590.98 421.827H468.029C461.699 421.827 456.52 416.648 456.52 410.318C456.52 403.988 461.699 398.809 468.029 398.809H590.98C597.31 398.809 602.489 403.988 602.489 410.318C602.489 416.648 597.31 421.827 590.98 421.827Z" fill="#407BFF"/>
<path d="M550.442 412.835H466.179C464.794 412.835 463.662 411.702 463.662 410.318C463.662 408.933 464.795 407.801 466.179 407.801H550.442C551.827 407.801 552.959 408.934 552.959 410.318C552.959 411.704 551.827 412.835 550.442 412.835Z" fill="white"/>
<path d="M580.858 412.835C582.248 412.835 583.375 411.708 583.375 410.318C583.375 408.928 582.248 407.801 580.858 407.801C579.468 407.801 578.341 408.928 578.341 410.318C578.341 411.708 579.468 412.835 580.858 412.835Z" fill="#407BFF"/>
<path d="M591.957 412.835C593.347 412.835 594.474 411.708 594.474 410.318C594.474 408.928 593.347 407.801 591.957 407.801C590.567 407.801 589.44 408.928 589.44 410.318C589.44 411.708 590.567 412.835 591.957 412.835Z" fill="#407BFF"/>
<path opacity="0.3" d="M569.761 412.835C571.151 412.835 572.278 411.708 572.278 410.318C572.278 408.928 571.151 407.801 569.761 407.801C568.371 407.801 567.244 408.928 567.244 410.318C567.244 411.708 568.371 412.835 569.761 412.835Z" fill="#407BFF"/>
<path opacity="0.3" d="M590.98 458.82H468.029C461.699 458.82 456.52 453.641 456.52 447.311C456.52 440.981 461.699 435.802 468.029 435.802H590.98C597.31 435.802 602.489 440.981 602.489 447.311C602.489 453.641 597.31 458.82 590.98 458.82Z" fill="#407BFF"/>
<path d="M550.442 449.83H466.179C464.794 449.83 463.662 448.697 463.662 447.313C463.662 445.927 464.795 444.796 466.179 444.796H550.442C551.827 444.796 552.959 445.929 552.959 447.313C552.959 448.697 551.827 449.83 550.442 449.83Z" fill="white"/>
<path d="M580.858 449.828C582.248 449.828 583.375 448.701 583.375 447.311C583.375 445.921 582.248 444.794 580.858 444.794C579.468 444.794 578.341 445.921 578.341 447.311C578.341 448.701 579.468 449.828 580.858 449.828Z" fill="#407BFF"/>
<path d="M591.957 449.828C593.347 449.828 594.474 448.701 594.474 447.311C594.474 445.921 593.347 444.794 591.957 444.794C590.567 444.794 589.44 445.921 589.44 447.311C589.44 448.701 590.567 449.828 591.957 449.828Z" fill="#407BFF"/>
<path opacity="0.6" d="M569.761 449.828C571.151 449.828 572.278 448.701 572.278 447.311C572.278 445.921 571.151 444.794 569.761 444.794C568.371 444.794 567.244 445.921 567.244 447.311C567.244 448.701 568.371 449.828 569.761 449.828Z" fill="#407BFF"/>
<path opacity="0.3" d="M590.98 495.815H468.029C461.699 495.815 456.52 490.636 456.52 484.306C456.52 477.976 461.699 472.797 468.029 472.797H590.98C597.31 472.797 602.489 477.976 602.489 484.306C602.489 490.636 597.31 495.815 590.98 495.815Z" fill="#407BFF"/>
<path d="M550.442 486.823H466.179C464.794 486.823 463.662 485.69 463.662 484.306C463.662 482.92 464.795 481.789 466.179 481.789H550.442C551.827 481.789 552.959 482.922 552.959 484.306C552.959 485.69 551.827 486.823 550.442 486.823Z" fill="white"/>
<path d="M580.858 486.823C582.248 486.823 583.375 485.696 583.375 484.306C583.375 482.916 582.248 481.789 580.858 481.789C579.468 481.789 578.341 482.916 578.341 484.306C578.341 485.696 579.468 486.823 580.858 486.823Z" fill="#407BFF"/>
<path opacity="0.3" d="M591.957 486.823C593.347 486.823 594.474 485.696 594.474 484.306C594.474 482.916 593.347 481.789 591.957 481.789C590.567 481.789 589.44 482.916 589.44 484.306C589.44 485.696 590.567 486.823 591.957 486.823Z" fill="#407BFF"/>
<path opacity="0.6" d="M569.761 486.823C571.151 486.823 572.278 485.696 572.278 484.306C572.278 482.916 571.151 481.789 569.761 481.789C568.371 481.789 567.244 482.916 567.244 484.306C567.244 485.696 568.371 486.823 569.761 486.823Z" fill="#407BFF"/>
<path opacity="0.3" d="M590.98 532.808H468.029C461.699 532.808 456.52 527.628 456.52 521.299C456.52 514.969 461.699 509.79 468.029 509.79H590.98C597.31 509.79 602.489 514.969 602.489 521.299C602.489 527.628 597.31 532.808 590.98 532.808Z" fill="#407BFF"/>
<path d="M550.442 523.816H466.179C464.794 523.816 463.662 522.682 463.662 521.299C463.662 519.913 464.795 518.781 466.179 518.781H550.442C551.827 518.781 552.959 519.915 552.959 521.299C552.959 522.682 551.827 523.816 550.442 523.816Z" fill="white"/>
<path d="M580.858 523.816C582.248 523.816 583.375 522.689 583.375 521.299C583.375 519.909 582.248 518.781 580.858 518.781C579.468 518.781 578.341 519.909 578.341 521.299C578.341 522.689 579.468 523.816 580.858 523.816Z" fill="#407BFF"/>
<path opacity="0.6" d="M591.957 523.816C593.347 523.816 594.474 522.689 594.474 521.299C594.474 519.909 593.347 518.781 591.957 518.781C590.567 518.781 589.44 519.909 589.44 521.299C589.44 522.689 590.567 523.816 591.957 523.816Z" fill="#407BFF"/>
<path d="M569.761 523.816C571.151 523.816 572.278 522.689 572.278 521.299C572.278 519.909 571.151 518.781 569.761 518.781C568.371 518.781 567.244 519.909 567.244 521.299C567.244 522.689 568.371 523.816 569.761 523.816Z" fill="#407BFF"/>
<path opacity="0.3" d="M590.98 569.801H468.029C461.699 569.801 456.52 564.622 456.52 558.292C456.52 551.962 461.699 546.783 468.029 546.783H590.98C597.31 546.783 602.489 551.962 602.489 558.292C602.489 564.622 597.31 569.801 590.98 569.801Z" fill="#407BFF"/>
<path d="M550.442 560.809H466.179C464.794 560.809 463.662 559.676 463.662 558.292C463.662 556.906 464.795 555.775 466.179 555.775H550.442C551.827 555.775 552.959 556.908 552.959 558.292C552.959 559.677 551.827 560.809 550.442 560.809Z" fill="white"/>
<path opacity="0.3" d="M580.858 560.809C582.248 560.809 583.375 559.682 583.375 558.292C583.375 556.902 582.248 555.775 580.858 555.775C579.468 555.775 578.341 556.902 578.341 558.292C578.341 559.682 579.468 560.809 580.858 560.809Z" fill="#407BFF"/>
<path d="M591.957 560.809C593.347 560.809 594.474 559.682 594.474 558.292C594.474 556.902 593.347 555.775 591.957 555.775C590.567 555.775 589.44 556.902 589.44 558.292C589.44 559.682 590.567 560.809 591.957 560.809Z" fill="#407BFF"/>
<path d="M569.761 560.809C571.151 560.809 572.278 559.682 572.278 558.292C572.278 556.902 571.151 555.775 569.761 555.775C568.371 555.775 567.244 556.902 567.244 558.292C567.244 559.682 568.371 560.809 569.761 560.809Z" fill="#407BFF"/>
<path opacity="0.3" d="M590.98 606.794H468.029C461.699 606.794 456.52 601.614 456.52 595.285C456.52 588.955 461.699 583.776 468.029 583.776H590.98C597.31 583.776 602.489 588.955 602.489 595.285C602.489 601.614 597.31 606.794 590.98 606.794Z" fill="#407BFF"/>
<path d="M550.442 597.802H466.179C464.794 597.802 463.662 596.669 463.662 595.285C463.662 593.899 464.795 592.768 466.179 592.768H550.442C551.827 592.768 552.959 593.901 552.959 595.285C552.959 596.67 551.827 597.802 550.442 597.802Z" fill="white"/>
<path opacity="0.3" d="M580.858 597.802C582.248 597.802 583.375 596.675 583.375 595.285C583.375 593.895 582.248 592.768 580.858 592.768C579.468 592.768 578.341 593.895 578.341 595.285C578.341 596.675 579.468 597.802 580.858 597.802Z" fill="#407BFF"/>
<path d="M591.957 597.802C593.347 597.802 594.474 596.675 594.474 595.285C594.474 593.895 593.347 592.768 591.957 592.768C590.567 592.768 589.44 593.895 589.44 595.285C589.44 596.675 590.567 597.802 591.957 597.802Z" fill="#407BFF"/>
<path opacity="0.3" d="M569.761 597.802C571.151 597.802 572.278 596.675 572.278 595.285C572.278 593.895 571.151 592.768 569.761 592.768C568.371 592.768 567.244 593.895 567.244 595.285C567.244 596.675 568.371 597.802 569.761 597.802Z" fill="#407BFF"/>
<path opacity="0.3" d="M590.98 643.787H468.029C461.699 643.787 456.52 638.607 456.52 632.278C456.52 625.948 461.699 620.769 468.029 620.769H590.98C597.31 620.769 602.489 625.948 602.489 632.278C602.489 638.607 597.31 643.787 590.98 643.787Z" fill="#407BFF"/>
<path d="M550.442 634.795H466.179C464.794 634.795 463.662 633.661 463.662 632.278C463.662 630.892 464.795 629.76 466.179 629.76H550.442C551.827 629.76 552.959 630.894 552.959 632.278C552.959 633.663 551.827 634.795 550.442 634.795Z" fill="white"/>
<path d="M580.858 634.795C582.248 634.795 583.375 633.668 583.375 632.278C583.375 630.887 582.248 629.76 580.858 629.76C579.468 629.76 578.341 630.887 578.341 632.278C578.341 633.668 579.468 634.795 580.858 634.795Z" fill="#407BFF"/>
<path d="M591.957 634.795C593.347 634.795 594.474 633.668 594.474 632.278C594.474 630.887 593.347 629.76 591.957 629.76C590.567 629.76 589.44 630.887 589.44 632.278C589.44 633.668 590.567 634.795 591.957 634.795Z" fill="#407BFF"/>
<path d="M569.761 634.795C571.151 634.795 572.278 633.668 572.278 632.278C572.278 630.887 571.151 629.76 569.761 629.76C568.371 629.76 567.244 630.887 567.244 632.278C567.244 633.668 568.371 634.795 569.761 634.795Z" fill="#407BFF"/>
<path opacity="0.3" d="M590.98 680.78H468.029C461.699 680.78 456.52 675.6 456.52 669.271C456.52 662.941 461.699 657.762 468.029 657.762H590.98C597.31 657.762 602.489 662.941 602.489 669.271C602.489 675.602 597.31 680.78 590.98 680.78Z" fill="#407BFF"/>
<path d="M550.442 671.79H466.179C464.794 671.79 463.662 670.656 463.662 669.272C463.662 667.887 464.795 666.755 466.179 666.755H550.442C551.827 666.755 552.959 667.889 552.959 669.272C552.959 670.656 551.827 671.79 550.442 671.79Z" fill="white"/>
<path d="M580.858 671.788C582.248 671.788 583.375 670.661 583.375 669.271C583.375 667.88 582.248 666.753 580.858 666.753C579.468 666.753 578.341 667.88 578.341 669.271C578.341 670.661 579.468 671.788 580.858 671.788Z" fill="#407BFF"/>
<path d="M591.957 671.788C593.347 671.788 594.474 670.661 594.474 669.271C594.474 667.88 593.347 666.753 591.957 666.753C590.567 666.753 589.44 667.88 589.44 669.271C589.44 670.661 590.567 671.788 591.957 671.788Z" fill="#407BFF"/>
<path opacity="0.6" d="M569.761 671.788C571.151 671.788 572.278 670.661 572.278 669.271C572.278 667.88 571.151 666.753 569.761 666.753C568.371 666.753 567.244 667.88 567.244 669.271C567.244 670.661 568.371 671.788 569.761 671.788Z" fill="#407BFF"/>
<path opacity="0.2" d="M649.937 442.791H632.727C629.951 442.791 627.68 440.519 627.68 437.743V416.481C627.68 413.705 629.952 411.435 632.727 411.435H649.937C652.713 411.435 654.985 413.707 654.985 416.481V437.743C654.985 440.519 652.713 442.791 649.937 442.791Z" fill="black"/>
<path d="M447.985 332.227L467.238 340.594L456.199 353.475L440.101 346.498L447.985 332.227Z" fill="#CE7A63"/>
<path opacity="0.2" d="M447.986 332.234L467.245 340.604L461.061 347.814L443.568 340.225L447.986 332.234Z" fill="black"/>
<path d="M458.658 360.276L456.502 359.696C455.218 359.35 454.19 358.387 453.765 357.127L452.352 357.725C451.535 358.07 450.625 358.133 449.767 357.903L420.343 349.989C420.525 347.329 422.993 344.458 422.993 344.458C422.993 344.458 436.106 347.244 440.05 344.24C440.353 344.008 440.75 343.945 441.09 344.117C443.442 345.31 452.73 349.792 458.809 349.449C459.616 349.404 460.214 350.169 460.025 350.956C458.985 355.274 458.658 360.276 458.658 360.276Z" fill="#263238"/>
<path d="M620.954 271.634L612.706 288.904C600.538 314.397 570.554 327.213 546.614 317.185C532.639 311.318 517.379 298.934 506.993 293.27C498.109 312.731 481.487 334.201 468.761 349.141L443.027 336.184C452.636 314.128 467.604 279.676 477.097 257.301C480.546 249.195 488.603 243.633 497.105 243.403C539.895 242.247 620.954 271.634 620.954 271.634Z" fill="#263238"/>
<path d="M497.004 388.657L515.505 387.84L512.086 408.162L496.623 408.868L497.004 388.657Z" fill="#CE7A63"/>
<path opacity="0.2" d="M497.007 388.664L515.515 387.845L514.107 396.2L496.842 397.324L497.007 388.664Z" fill="black"/>
<path d="M519.18 409.089L517.049 409.758C515.779 410.157 514.395 409.895 513.36 409.061L512.489 410.323C511.985 411.054 511.252 411.595 510.404 411.862L481.33 420.983C480.056 418.641 480.597 414.893 480.597 414.893C480.597 414.893 493.158 410.204 494.872 405.553C495.004 405.194 495.304 404.928 495.683 404.891C498.308 404.634 508.549 403.429 513.496 399.877C514.152 399.405 515.067 399.73 515.331 400.494C516.773 404.693 519.18 409.089 519.18 409.089Z" fill="#263238"/>
<path d="M632.943 264.799L632.803 283.037C632.587 309.943 609.78 333.96 582.543 335.983C566.647 337.154 545.164 337.524 532.767 337.282C530.959 356.118 525.074 378.315 519.149 394.403L492.37 392.531C491.67 369.698 490.639 337.319 489.774 315.849C489.442 307.475 494.623 299.241 502.616 295.307C542.771 275.542 632.943 264.799 632.943 264.799Z" fill="#263238"/>
<path opacity="0.1" d="M513.452 394.641C513.391 394.641 513.328 394.633 513.267 394.614C512.931 394.512 512.741 394.156 512.843 393.821C516.892 380.509 524.185 338.952 524.51 319.888C524.513 319.705 524.593 319.534 524.731 319.416C524.869 319.297 525.048 319.243 525.23 319.268C564.349 324.471 590.842 322.703 601.846 314.152C621.173 299.133 620.898 274.824 615.996 262.147C615.868 261.819 616.032 261.451 616.36 261.325C616.689 261.198 617.056 261.361 617.182 261.689C622.22 274.72 622.503 299.714 602.625 315.158C591.254 323.995 565.402 325.833 525.764 320.623C525.274 340.082 518.075 380.981 514.058 394.194C513.978 394.464 513.726 394.641 513.452 394.641Z" fill="black"/>
<path opacity="0.2" d="M505.945 295.51C501.746 304.227 496.095 313.277 490.024 321.906C490.159 325.673 490.305 329.671 490.458 333.818C499.935 318.851 505.96 295.484 505.96 295.484C505.96 295.484 505.96 295.498 505.945 295.51Z" fill="black"/>
<path d="M575.226 178.948C574.506 181.583 573.829 183.877 573.043 186.291C572.295 188.682 571.458 191.034 570.621 193.392C568.898 198.091 567.115 202.773 565.036 207.402C562.986 212.049 560.831 216.658 558.273 221.257C555.759 225.878 552.961 230.444 549.463 235.074L548.369 236.522C547.673 237.443 546.765 238.158 545.794 238.629C543.91 239.535 541.966 240.285 540.015 240.915C538.08 241.585 536.065 242.008 534.087 242.404C532.084 242.748 530.071 242.971 528.032 243.03C527.015 243.068 525.981 243.034 524.951 242.996L523.371 242.87C522.811 242.816 522.354 242.717 521.613 242.673C518.334 242.482 515.83 239.667 516.021 236.389C516.055 235.814 516.169 235.261 516.352 234.743L518.609 228.489C518.693 228.259 519.052 227.956 519.309 227.68L520.167 226.867L521.906 225.277C523.057 224.227 524.199 223.236 525.285 222.217C526.396 221.255 527.436 220.229 528.471 219.291C529.512 218.355 530.453 217.347 531.427 216.452L527.758 220.006C529.674 216.712 531.47 212.839 533.236 208.885L534.525 205.866L535.752 202.761C536.591 200.698 537.403 198.595 538.187 196.474C539.752 192.233 541.299 187.92 542.778 183.583L547.145 170.699L547.249 170.391C549.844 162.733 558.155 158.632 565.811 161.227C573.17 163.719 577.235 171.545 575.226 178.948Z" fill="#CE7A63"/>
<path d="M561.183 154.993C553.413 157.222 542.961 165.802 539.37 185.234C544.573 193.318 569.005 187.077 569.005 187.077L561.183 154.993Z" fill="#407BFF"/>
<path d="M524.631 228.672L525.421 237.085C523.065 245.646 512.582 240.712 512.582 240.712L506.585 240.377C504.551 240.263 502.886 238.462 502.648 236.122L502.05 230.245C501.778 227.566 503.46 225.158 505.78 224.906L510.991 224.341C512.508 224.175 514.041 224.39 515.455 224.962L524.631 228.672Z" fill="#CE7A63"/>
<path d="M564.948 153.83C577.158 151.218 591.198 149.259 603.75 148.557C618.086 147.756 630.014 159.348 629.648 173.699C628.553 216.568 634.589 261.638 633.733 269.903C633.733 269.903 543.339 282.917 529.48 256.049C523.659 217.941 542.47 222.797 543.976 179.042C544.371 167.579 553.733 156.23 564.948 153.83Z" fill="#407BFF"/>
<path d="M557.82 192.58L558.125 192.493L558.179 192.164C558.651 189.329 560.913 187.263 563.682 187.138L564.02 187.125L564.133 186.796C565.101 183.973 567.572 182.146 570.479 182.077H570.49C573.475 182.252 576.27 184.305 577.512 187.264L577.72 187.76L578.195 187.622C578.208 187.618 578.224 187.613 578.237 187.612C578.784 187.458 579.352 187.385 579.926 187.395C580.026 187.397 580.125 187.402 580.223 187.407C583.599 187.627 586.465 190.6 586.677 194.176C586.897 197.858 584.223 200.805 580.719 200.748L559.319 200.392C557.235 200.358 555.432 198.545 555.301 196.355C555.194 194.586 556.23 193.034 557.82 192.58Z" fill="white"/>
<path d="M628.679 163.109L629.505 164.944L630.226 166.614C630.696 167.72 631.115 168.828 631.544 169.933C632.4 172.139 633.14 174.375 633.872 176.618C635.288 181.117 636.531 185.695 637.465 190.408C637.935 192.765 638.352 195.151 638.709 197.566C639.028 199.994 639.276 202.456 639.453 204.95C639.807 209.952 639.722 215.135 639.012 220.523L638.847 221.777C638.629 223.428 638.01 224.977 637.14 226.274C635.256 229.06 633.356 231.084 631.44 232.808C629.527 234.527 627.638 235.972 625.76 237.298C622.018 239.926 618.227 241.95 614.473 243.823C610.686 245.636 606.895 247.229 603.047 248.606C599.163 249.978 595.392 251.171 591.234 252.126C587.256 253.038 583.292 250.555 582.38 246.577C581.725 243.718 582.822 240.867 584.969 239.15L585.282 238.903C588.124 236.638 591.23 234.347 594.132 232.071C597.068 229.796 599.953 227.528 602.676 225.221C605.427 222.965 607.981 220.591 610.208 218.344C611.3 217.218 612.287 216.093 613.06 215.049C613.821 214.009 614.42 213.067 614.546 212.561L612.674 218.312C612.657 215.073 612.253 211.576 611.683 207.979C611.05 204.38 610.208 200.69 609.22 196.971C608.18 193.26 607.078 189.506 605.801 185.784C605.19 183.915 604.506 182.066 603.861 180.216L601.922 174.988L601.629 174.198C598.821 166.624 602.683 158.209 610.255 155.399C617.502 152.71 625.539 156.176 628.679 163.109Z" fill="#CE7A63"/>
<path d="M608.504 148.748C614.745 149.439 627.971 154.125 636.67 172.05C628.13 188.929 605.845 195.352 605.845 195.352C605.845 195.352 590.338 157.719 608.504 148.748Z" fill="#407BFF"/>
<path d="M557.469 269.721H483.997C480.798 269.721 480.117 268.981 482.486 268.077L516.007 255.281C518.376 254.378 522.932 253.637 526.132 253.637H599.604C602.804 253.637 603.485 254.378 601.115 255.281L567.595 268.077C565.225 268.981 560.669 269.721 557.469 269.721Z" fill="#407BFF"/>
<path opacity="0.4" d="M557.469 269.721H483.997C480.798 269.721 480.117 268.981 482.486 268.077L516.007 255.281C518.376 254.378 522.932 253.637 526.132 253.637H599.604C602.804 253.637 603.485 254.378 601.115 255.281L567.595 268.077C565.225 268.981 560.669 269.721 557.469 269.721Z" fill="black"/>
<path d="M557.469 266.685H483.997C480.798 266.685 477.698 264.067 477.111 260.867L468.792 215.586C468.205 212.386 470.341 209.768 473.54 209.768H547.012C550.212 209.768 553.311 212.386 553.899 215.586L562.218 260.867C562.807 264.067 560.669 266.685 557.469 266.685Z" fill="#407BFF"/>
<path opacity="0.3" d="M557.469 266.685H483.997C480.798 266.685 477.698 264.067 477.111 260.867L468.792 215.586C468.205 212.386 470.341 209.768 473.54 209.768H547.012C550.212 209.768 553.311 212.386 553.899 215.586L562.218 260.867C562.807 264.067 560.669 266.685 557.469 266.685Z" fill="black"/>
<path opacity="0.3" d="M555.748 266.685H483.999C480.799 266.685 477.7 264.067 477.113 260.867L468.793 215.586C468.206 212.386 470.342 209.768 473.542 209.768H545.293C548.493 209.768 551.592 212.386 552.179 215.586L560.499 260.867C561.084 264.067 558.948 266.685 555.748 266.685Z" fill="#407BFF"/>
<path d="M589.142 242.047L592.82 245.912C596.265 254.095 584.979 256.704 584.979 256.704L580.058 260.151C578.39 261.32 575.968 260.935 574.333 259.244L570.228 254.995C568.355 253.06 568.187 250.126 569.853 248.494L573.597 244.824C574.687 243.757 576.025 242.976 577.488 242.55L584.002 240.658C585.842 240.125 587.823 240.661 589.142 242.047Z" fill="#CE7A63"/>
<path d="M569.875 158.252C570.325 156.385 572.119 153.303 574.35 151.929C574.786 149.659 574.433 147.291 573.101 144.701L593.39 127.718C594.655 136.177 597.632 147.463 601.805 151.129C597.155 155.418 588.608 163.159 577.965 164.968C567.321 166.779 568.895 162.332 569.875 158.252Z" fill="#CE7A63"/>
<path opacity="0.2" d="M573.482 145.49L590.806 138.269C588.624 147.078 578.816 154.361 574.495 150.865C574.631 149.151 574.321 147.383 573.482 145.49Z" fill="black"/>
<path d="M572.469 118.258C572.469 124.491 567.416 129.544 561.183 129.544C554.95 129.544 549.897 124.491 549.897 118.258C549.897 112.026 554.95 106.972 561.183 106.972C567.416 106.972 572.469 112.026 572.469 118.258Z" fill="#263238"/>
<path d="M591.892 111.913C594.551 124.815 596.078 133.633 590.168 140.99C578.426 155.607 567.763 151.068 561.289 139.188C555.461 128.496 552.091 109.194 563.197 100.879C574.137 92.6893 589.234 99.0122 591.892 111.913Z" fill="#CE7A63"/>
<path d="M566.556 108.494C563.944 111.472 557.054 117.714 547.031 112.087C537.008 106.46 541.083 92.9989 547.126 88.6929C555.881 82.4516 564.619 86.3679 564.619 86.3679C564.619 86.3679 563.792 79.2059 573.863 78.9217C583.934 78.6375 583.437 85.8012 583.437 85.8012C583.437 85.8012 596.486 80.3718 602.726 90.4102C608.531 99.7508 599.876 107.005 599.876 107.005C599.876 107.005 608.916 110.892 605.941 120.273C603.388 128.322 596.059 128.283 596.059 128.283C596.059 128.283 586.414 128.959 584.783 121.93C583.153 114.9 586.201 109.699 586.201 109.699C586.201 109.699 570.742 115.727 566.556 108.494Z" fill="#263238"/>
<path d="M581.379 123.715C581.365 123.715 581.35 123.713 581.336 123.713L578.96 123.47C578.727 123.446 578.557 123.237 578.581 123.003C578.605 122.769 578.819 122.602 579.047 122.624L581.35 122.859L593.371 119.933C593.605 119.879 593.829 120.018 593.885 120.246C593.942 120.474 593.802 120.704 593.572 120.76L581.479 123.703C581.445 123.71 581.411 123.715 581.379 123.715Z" fill="#263238"/>
<path d="M598.716 108.326C598.329 108.326 597.936 108.305 597.534 108.264C597.066 108.217 596.726 107.8 596.774 107.332C596.821 106.864 597.252 106.518 597.706 106.573C600.373 106.845 602.548 106.047 603.684 104.385C604.57 103.087 604.673 101.478 603.956 100.078C603.742 99.659 603.907 99.1467 604.325 98.9323C604.746 98.7178 605.256 98.8829 605.471 99.3016C606.463 101.237 606.317 103.553 605.09 105.347C603.772 107.27 601.488 108.326 598.716 108.326Z" fill="#263238"/>
<path d="M551.952 116.653C550.384 116.653 548.672 116.427 546.803 115.911C541.973 114.58 538.901 111.079 538.376 106.305C537.828 101.31 540.289 96.0167 544.104 93.9947C544.519 93.7751 545.035 93.9317 545.254 94.347C545.474 94.7623 545.315 95.278 544.902 95.4976C541.67 97.2115 539.592 101.778 540.07 106.12C540.33 108.497 541.612 112.717 547.257 114.272C557.233 117.019 562.257 110.596 564.364 106.521C564.58 106.104 565.093 105.939 565.511 106.157C565.93 106.373 566.092 106.887 565.877 107.304C563.925 111.071 559.721 116.653 551.952 116.653Z" fill="#263238"/>
<path d="M570.839 136.175C570.258 136.422 569.625 136.631 568.932 136.788C568.745 136.831 568.57 136.706 568.539 136.511C568.508 136.317 568.631 136.126 568.823 136.082C573.88 134.936 575.672 130.712 575.689 130.669C575.766 130.482 575.968 130.389 576.142 130.458C576.316 130.53 576.394 130.737 576.317 130.923C576.249 131.09 574.809 134.492 570.839 136.175Z" fill="#263238"/>
<path opacity="0.2" d="M575.895 118.885C575.895 118.885 578.007 117.052 580.303 117.459C578.067 118.711 575.895 118.885 575.895 118.885Z" fill="black"/>
<path opacity="0.2" d="M576.305 119.911C576.305 119.911 578.538 118.675 580.497 119.657C578.266 120.299 576.305 119.911 576.305 119.911Z" fill="black"/>
<path opacity="0.2" d="M558.465 123.797C558.465 123.797 557.01 122.987 556.506 123.916C557.737 124.256 558.465 123.797 558.465 123.797Z" fill="black"/>
<path opacity="0.2" d="M558.639 124.83C558.639 124.83 557.417 124.06 557.274 125.283C558.228 125.505 558.639 124.83 558.639 124.83Z" fill="black"/>
<path d="M599.873 125.931C598.842 129.318 596.331 131.905 593.725 133.221C589.807 135.2 586.962 131.908 587.307 127.773C587.619 124.049 590.034 118.532 594.323 118.27C598.551 118.012 601.052 122.059 599.873 125.931Z" fill="#CE7A63"/>
<path d="M572.714 120.469C572.995 121.502 572.672 122.484 571.994 122.661C571.317 122.838 570.539 122.144 570.258 121.111C569.977 120.078 570.301 119.096 570.98 118.919C571.657 118.742 572.433 119.436 572.714 120.469Z" fill="#263238"/>
<path d="M561.796 123.582C562.077 124.615 561.753 125.597 561.076 125.774C560.398 125.951 559.621 125.257 559.34 124.224C559.059 123.191 559.382 122.209 560.06 122.032C560.739 121.853 561.515 122.547 561.796 123.582Z" fill="#263238"/>
<path d="M555.5 131.311C554.833 131.311 554.135 130.921 553.802 130.327L552.067 127.225C551.854 126.845 551.822 126.425 551.98 126.072C552.132 125.734 552.447 125.49 552.843 125.402L561.695 123.436C562.448 123.269 563.35 123.683 563.74 124.382L565.474 127.485C565.687 127.864 565.717 128.285 565.561 128.637C565.409 128.976 565.094 129.219 564.698 129.308L555.846 131.274C555.735 131.299 555.618 131.311 555.5 131.311ZM562.044 124.251C561.988 124.251 561.934 124.256 561.881 124.268L553.029 126.234C552.935 126.254 552.811 126.304 552.758 126.421C552.712 126.525 552.731 126.666 552.811 126.811L554.545 129.912C554.751 130.281 555.277 130.531 555.662 130.443L564.514 128.477C564.608 128.457 564.732 128.407 564.785 128.29C564.83 128.186 564.812 128.045 564.732 127.9L562.997 124.797C562.819 124.481 562.403 124.251 562.044 124.251Z" fill="#263238"/>
<path d="M565.425 123.688L569.171 131.876C569.171 131.876 566.367 134.01 563.889 133.45C563.042 128.746 565.425 123.688 565.425 123.688Z" fill="#BA4D3C"/>
<path d="M570.176 128.053C569.509 128.053 568.811 127.664 568.48 127.07L566.743 123.969C566.531 123.589 566.5 123.169 566.657 122.816C566.808 122.478 567.123 122.234 567.52 122.146L576.372 120.18C577.131 120.013 578.026 120.429 578.416 121.126L580.152 124.227C580.365 124.607 580.397 125.027 580.239 125.38C580.087 125.718 579.772 125.962 579.376 126.052L570.524 128.018C570.411 128.042 570.294 128.053 570.176 128.053ZM576.721 120.994C576.664 120.994 576.61 120.999 576.557 121.011L567.705 122.976C567.612 122.997 567.487 123.046 567.435 123.164C567.389 123.267 567.407 123.409 567.487 123.553L569.223 126.656C569.429 127.024 569.948 127.276 570.34 127.187L579.192 125.221C579.286 125.201 579.41 125.152 579.463 125.034C579.508 124.93 579.49 124.789 579.41 124.644L577.674 121.543C577.495 121.222 577.08 120.994 576.721 120.994Z" fill="#263238"/>
<path d="M564.077 126.282C564.032 126.282 563.986 126.275 563.94 126.26C563.723 126.183 563.603 125.957 563.671 125.737C563.695 125.662 564.282 123.895 567.909 124.615C568.139 124.661 568.289 124.884 568.243 125.116C568.197 125.346 567.978 125.499 567.743 125.449C564.943 124.896 564.483 125.992 564.48 126.003C564.415 126.173 564.25 126.282 564.077 126.282Z" fill="#263238"/>
<path d="M575.213 116.722C575.31 116.682 575.398 116.618 575.466 116.529C575.679 116.257 575.63 115.862 575.354 115.648C572.595 113.501 569.829 114.4 569.714 114.439C569.383 114.55 569.21 114.907 569.324 115.236C569.438 115.563 569.795 115.74 570.124 115.629C570.214 115.6 572.377 114.921 574.58 116.635C574.768 116.779 575.01 116.805 575.213 116.722Z" fill="#263238"/>
<path d="M554.996 122.059C555.192 122.003 555.357 121.855 555.422 121.645C556.251 119.005 558.422 118.357 558.514 118.331C558.848 118.236 559.04 117.891 558.945 117.557C558.848 117.225 558.502 117.029 558.169 117.121C558.048 117.157 555.255 117.955 554.217 121.262C554.113 121.593 554.298 121.947 554.632 122.052C554.755 122.091 554.881 122.091 554.996 122.059Z" fill="#263238"/>
<path opacity="0.2" d="M430.728 574.33V686.241C430.728 698.45 440.716 708.437 452.924 708.437H480.18L470.441 584.921L430.728 574.33Z" fill="black"/>
<path d="M390.154 575.285L379.277 588.853C377.299 591.319 374.326 592.783 371.288 592.783H273.058C267.845 592.783 263.268 597.009 262.838 602.222L254.185 706.781C253.754 711.994 257.63 716.22 262.843 716.22H455.164C460.377 716.22 464.954 711.994 465.384 706.781L475.809 580.796C476.24 575.582 472.364 571.356 467.151 571.356H398.142C395.105 571.355 392.132 572.818 390.154 575.285Z" fill="#407BFF"/>
<path opacity="0.3" d="M390.154 575.285L379.277 588.853C377.299 591.319 374.326 592.783 371.288 592.783H273.058C267.845 592.783 263.268 597.009 262.838 602.222L254.185 706.781C253.754 711.994 257.63 716.22 262.843 716.22H455.164C460.377 716.22 464.954 711.994 465.384 706.781L475.809 580.796C476.24 575.582 472.364 571.356 467.151 571.356H398.142C395.105 571.355 392.132 572.818 390.154 575.285Z" fill="black"/>
<path d="M351.316 582.722L342.498 595.574C340.895 597.911 338.143 599.296 335.105 599.296H254.318C249.104 599.296 245.169 603.299 245.53 608.237L252.752 707.276C253.113 712.214 257.63 716.219 262.843 716.219H455.164C460.377 716.219 464.312 712.215 463.951 707.276L455.249 587.941C454.888 583.003 450.371 578.998 445.158 578.998H358.708C355.67 579 352.92 580.385 351.316 582.722Z" fill="#407BFF"/>
</g>
<defs>
<clipPath id="clip0_12_35">
<rect width="851" height="851" fill="white" transform="translate(0.5)"/>
</clipPath>
</defs>
</svg>
