<svg width="601" height="601" viewBox="0 0 601 601" fill="none" xmlns="http://www.w3.org/2000/svg">
<g clip-path="url(#clip0_12_283)">
<rect width="601" height="601" fill="white"/>
<path d="M75.125 75.125H150.25V150.25H75.125V75.125Z" fill="black"/>
<path d="M225.375 0V225.375H0V0H225.375ZM187.812 37.5625H37.5625V187.812H187.812V37.5625ZM150.25 450.75H75.125V525.875H150.25V450.75Z" fill="black"/>
<path d="M225.375 375.625V601H0V375.625H225.375ZM37.5625 413.187V563.437H187.812V413.187H37.5625ZM450.75 75.125H525.875V150.25H450.75V75.125Z" fill="black"/>
<path d="M375.625 0V225.375H601V0H375.625ZM563.438 37.5625V187.812H413.188V37.5625H563.438ZM300.5 37.5625V0H338.062V75.125H300.5V150.25H262.938V37.5625H300.5ZM300.5 225.375V150.25H338.062V225.375H300.5ZM225.375 300.5V262.937H262.938V225.375H300.5V300.5H338.062V262.937H525.875V300.5H375.625V338.062H262.938V300.5H225.375ZM225.375 300.5V338.062H75.125V300.5H37.5625V338.062H0V262.937H112.688V300.5H225.375ZM601 338.062H563.438V262.937H601V338.062ZM563.438 338.062H525.875V413.187H601V375.625H563.438V338.062ZM413.188 338.062H488.312V375.625H450.75V413.187H413.188V338.062ZM488.312 450.75V413.187H450.75V450.75H413.188V488.312H338.062V525.875H450.75V450.75H488.312ZM488.312 450.75H601V488.312H525.875V525.875H488.312V450.75ZM338.062 413.187V450.75H375.625V375.625H262.938V413.187H338.062Z" fill="black"/>
<path d="M262.938 450.751H300.5V563.438H450.75V601.001H262.938V450.751ZM601 525.876V601.001H488.312V563.438H563.438V525.876H601Z" fill="black"/>
</g>
<defs>
<clipPath id="clip0_12_283">
<rect width="601" height="601" fill="white"/>
</clipPath>
</defs>
</svg>
